Genre: Horror | Thriller 
Language:English  http://www.imdb.com/title/tt1486670/
Source:BluRay.x264-AVCHD
Subtitles:Romana


Format                           : Matroska
File size                        : 1.33 GiB
Duration                         : 1h 15mn
Overall bit rate                 : 2 525 Kbps


Video
Format settings, CABAC           : Yes
Format settings, ReFrames        : 4 frames
Codec ID                         : V_MPEG4/ISO/AVC
Duration                         : 1h 15mn
Bit rate                         : 2 091 Kbps
Nominal bit rate                 : 2 200 Kbps
Width                            : 1 280 pixels
Height                           : 720 pixels
Display aspect ratio             : 16:9
Frame rate mode                  : Variable
Frame rate                       : 25.000 fps
Color space                      : YUV
Chroma subsampling               : 4:2:0
Bit depth                        : 8 bits
Scan type                        : Progressive
Bits/(Pixel*Frame)               : 0.091
Stream size                      : 1.10 GiB (83%)
Writing library                  : x264

Audio
ID                               : 2
Format                           : AC-3
Format/Info                      : Audio Coding 3
Mode extension                   : CM (complete main)
Codec ID                         : A_AC3
Duration                         : 1h 15mn
Bit rate mode                    : Constant
Bit rate                         : 384 Kbps
Channel(s)                       : 6 channels
Channel positions                : Front: L C R, Side: L R, LFE
Sampling rate                    : 48.0 KHz
Bit depth                        : 16 bits
Video delay                      : -1mn 5s
Stream size                      : 207 MiB (15%)
Language                         : English


    
Plot:
 A group of teachers must defend themselves from a gang of murderous kids when their school comes under siege after hours
 
http://shareimage.org/images/uh37mzdljxhc21510gv6.png 
http://shareimage.org/images/vyfh1axl2j7nt9pgnp53.png 
http://shareimage.org/images/83fznryuyyjpk1ca4v0z.png 
http://shareimage.org/images/q9wazjj8iwelc8yznzgr.png